<?xml version="1.0" encoding="UTF-8" standalone="no"?>
<svg
   xmlns:dc="http://purl.org/dc/elements/1.1/"
   xmlns:cc="http://creativecommons.org/ns#"
   xmlns:rdf="http://www.w3.org/1999/02/22-rdf-syntax-ns#"
   xmlns:svg="http://www.w3.org/2000/svg"
   xmlns="http://www.w3.org/2000/svg"
   xmlns:sodipodi="http://sodipodi.sourceforge.net/DTD/sodipodi-0.dtd"
   xmlns:inkscape="http://www.inkscape.org/namespaces/inkscape"
   size="16"
   class="icon icon--Aperature"
   aria-hidden="true"
   viewBox="0 0 24 24"
   width="16"
   height="16"
   fill="none"
   stroke-width="1.5"
   stroke-linecap="round"
   stroke-linejoin="round"
   version="1.1"
   id="svg1302"
   sodipodi:docname="Aperature.svg"
   inkscape:version="0.92.4 (5da689c313, 2019-01-14)">
  <metadata
     id="metadata1308">
    <rdf:RDF>
      <cc:Work
         rdf:about="">
        <dc:format>image/svg+xml</dc:format>
        <dc:type
           rdf:resource="http://purl.org/dc/dcmitype/StillImage" />
      </cc:Work>
    </rdf:RDF>
  </metadata>
  <defs
     id="defs1306" />
  <sodipodi:namedview
     pagecolor="#ffffff"
     bordercolor="#666666"
     borderopacity="1"
     objecttolerance="10"
     gridtolerance="10"
     guidetolerance="10"
     inkscape:pageopacity="0"
     inkscape:pageshadow="2"
     inkscape:window-width="705"
     inkscape:window-height="1652"
     id="namedview1304"
     showgrid="false"
     inkscape:zoom="14.75"
     inkscape:cx="-1.6271186"
     inkscape:cy="8"
     inkscape:window-x="1920"
     inkscape:window-y="26"
     inkscape:window-maximized="0"
     inkscape:current-layer="svg1302" />
  <line
     x1="3.5"
     y1="3.5"
     x2="14.5"
     y2="3.5"
     id="Stroke-6102"
     style="stroke:#ffffff;stroke-opacity:1" />
  <polygon
     id="Stroke-6103"
     points="3.5 12.5 8.5 12.5 8.5 6.5 3.5 6.5"
     style="stroke:#ffffff;stroke-opacity:1" />
  <line
     x1="11.5"
     y1="8.5"
     x2="14.5"
     y2="8.5"
     id="Stroke-6104"
     style="stroke:#ffffff;stroke-opacity:1" />
  <line
     x1="10.5"
     y1="10.5"
     x2="14.5"
     y2="10.5"
     id="Stroke-6105"
     style="stroke:#ffffff;stroke-opacity:1" />
  <line
     x1="10.5"
     y1="12.5"
     x2="14.5"
     y2="12.5"
     id="Stroke-6106"
     style="stroke:#ffffff;stroke-opacity:1" />
  <line
     x1="3.5"
     y1="14.5"
     x2="14.5"
     y2="14.5"
     id="Stroke-6107"
     style="stroke:#ffffff;stroke-opacity:1" />
  <line
     x1="3.5"
     y1="16.5"
     x2="14.5"
     y2="16.5"
     id="Stroke-6108"
     style="stroke:#ffffff;stroke-opacity:1" />
  <line
     x1="3.5"
     y1="18.5"
     x2="14.5"
     y2="18.5"
     id="Stroke-6109"
     style="stroke:#ffffff;stroke-opacity:1" />
  <path
     d="M19.5,5.5 L21.5,5.5 L21.5,20.5 C21.5,21.052 21.053,21.5 20.5,21.5 C19.948,21.5 19.5,21.052 19.5,20.5 L19.5,2 L17.5,2 L17.5,4"
     id="Stroke-6110"
     style="stroke:#ffffff;stroke-opacity:1" />
  <path
     d="M20.5,23.5 L3.5,23.5 C1.844,23.5 0.5,22.157 0.5,20.5 L0.5,0.5 L17.5,0.5 L17.5,20.5 C17.5,22.157 18.844,23.5 20.5,23.5 C22.157,23.5 23.5,22.157 23.5,20.5 L23.5,3.5 L19.5,3.5"
     id="Stroke-6111"
     style="stroke:#ffffff;stroke-opacity:1" />
</svg>
