<?xml version="1.0" encoding="UTF-8" standalone="no"?>
<svg
   xmlns:dc="http://purl.org/dc/elements/1.1/"
   xmlns:cc="http://creativecommons.org/ns#"
   xmlns:rdf="http://www.w3.org/1999/02/22-rdf-syntax-ns#"
   xmlns:svg="http://www.w3.org/2000/svg"
   xmlns="http://www.w3.org/2000/svg"
   xmlns:sodipodi="http://sodipodi.sourceforge.net/DTD/sodipodi-0.dtd"
   xmlns:inkscape="http://www.inkscape.org/namespaces/inkscape"
   size="16"
   class="icon icon--Cheese"
   aria-hidden="true"
   viewBox="0 0 25 24"
   width="16"
   height="16"
   fill="none"
   stroke-width="1.5"
   stroke-linecap="round"
   stroke-linejoin="round"
   version="1.1"
   id="svg18"
   sodipodi:docname="Cheese.svg"
   inkscape:version="0.92.4 (5da689c313, 2019-01-14)">
  <metadata
     id="metadata24">
    <rdf:RDF>
      <cc:Work
         rdf:about="">
        <dc:format>image/svg+xml</dc:format>
        <dc:type
           rdf:resource="http://purl.org/dc/dcmitype/StillImage" />
      </cc:Work>
    </rdf:RDF>
  </metadata>
  <defs
     id="defs22" />
  <sodipodi:namedview
     pagecolor="#ffffff"
     bordercolor="#666666"
     borderopacity="1"
     objecttolerance="10"
     gridtolerance="10"
     guidetolerance="10"
     inkscape:pageopacity="0"
     inkscape:pageshadow="2"
     inkscape:window-width="1048"
     inkscape:window-height="1652"
     id="namedview20"
     showgrid="false"
     inkscape:zoom="14.75"
     inkscape:cx="-8.8813559"
     inkscape:cy="8"
     inkscape:window-x="1920"
     inkscape:window-y="26"
     inkscape:window-maximized="0"
     inkscape:current-layer="svg18" />
  <g
     transform="matrix(1,0,0,1,0,0)"
     id="g16"
     style="stroke:#ffffff;stroke-opacity:1">
    <path
       d="M18.500 12.639 A1.500 1.500 0 1 0 21.500 12.639 A1.500 1.500 0 1 0 18.500 12.639 Z"
       fill="none"
       stroke-linecap="round"
       stroke-linejoin="round"
       id="path2"
       style="stroke:#ffffff;stroke-opacity:1" />
    <path
       d="M5.000 14.139 A1.000 1.000 0 1 0 7.000 14.139 A1.000 1.000 0 1 0 5.000 14.139 Z"
       fill="none"
       stroke-linecap="round"
       stroke-linejoin="round"
       id="path4"
       style="stroke:#ffffff;stroke-opacity:1" />
    <path
       d="M9.000 18.139 A2.000 2.000 0 1 0 13.000 18.139 A2.000 2.000 0 1 0 9.000 18.139 Z"
       fill="none"
       stroke-linecap="round"
       stroke-linejoin="round"
       id="path6"
       style="stroke:#ffffff;stroke-opacity:1" />
    <path
       d="M23.5,8.493V19.761a1,1,0,0,1-.871.991l-21,2.74A1,1,0,0,1,.5,22.5a1.045,1.045,0,0,1,.686-.982A2,2,0,0,0,.5,17.639V11.945a1,1,0,0,1,.339-.751L12.709.749a1,1,0,0,1,.7-.248C17.854.674,23.5,3.642,23.5,8.493"
       fill="none"
       stroke-linecap="round"
       stroke-linejoin="round"
       id="path8"
       style="stroke:#ffffff;stroke-opacity:1" />
    <path
       d="M23.5 8.493L0.616 11.478"
       fill="none"
       stroke-linecap="round"
       stroke-linejoin="round"
       id="path10"
       style="stroke:#ffffff;stroke-opacity:1" />
    <path
       d="M18,17.389a.25.25,0,1,1-.25.25.25.25,0,0,1,.25-.25"
       fill="none"
       stroke-linecap="round"
       stroke-linejoin="round"
       id="path12"
       style="stroke:#ffffff;stroke-opacity:1" />
    <path
       d="M13.5,12.889a.25.25,0,1,1-.25.25.25.25,0,0,1,.25-.25"
       fill="none"
       stroke-linecap="round"
       stroke-linejoin="round"
       id="path14"
       style="stroke:#ffffff;stroke-opacity:1" />
  </g>
</svg>
