<?xml version="1.0" encoding="UTF-8" standalone="no"?>
<svg
   xmlns:dc="http://purl.org/dc/elements/1.1/"
   xmlns:cc="http://creativecommons.org/ns#"
   xmlns:rdf="http://www.w3.org/1999/02/22-rdf-syntax-ns#"
   xmlns:svg="http://www.w3.org/2000/svg"
   xmlns="http://www.w3.org/2000/svg"
   xmlns:sodipodi="http://sodipodi.sourceforge.net/DTD/sodipodi-0.dtd"
   xmlns:inkscape="http://www.inkscape.org/namespaces/inkscape"
   viewBox="0 0 24 24"
   height="16"
   width="16"
   fill="none"
   stroke="currentColor"
   stroke-linecap="round"
   stroke-linejoin="round"
   class="icon icon--Comedy"
   aria-hidden="true"
   version="1.1"
   id="svg895"
   sodipodi:docname="Comedy.svg"
   inkscape:version="1.0.2 (e86c870879, 2021-01-15)">
  <metadata
     id="metadata901">
    <rdf:RDF>
      <cc:Work
         rdf:about="">
        <dc:format>image/svg+xml</dc:format>
        <dc:type
           rdf:resource="http://purl.org/dc/dcmitype/StillImage" />
      </cc:Work>
    </rdf:RDF>
  </metadata>
  <defs
     id="defs899" />
  <sodipodi:namedview
     pagecolor="#ffffff"
     bordercolor="#666666"
     borderopacity="1"
     objecttolerance="10"
     gridtolerance="10"
     guidetolerance="10"
     inkscape:pageopacity="0"
     inkscape:pageshadow="2"
     inkscape:window-width="1920"
     inkscape:window-height="1032"
     id="namedview897"
     showgrid="false"
     inkscape:zoom="45.4375"
     inkscape:cx="8"
     inkscape:cy="8"
     inkscape:window-x="0"
     inkscape:window-y="0"
     inkscape:window-maximized="1"
     inkscape:current-layer="svg895" />
  <path
     d="M2.000 13.500 A10.000 10.000 0 1 0 22.000 13.500 A10.000 10.000 0 1 0 2.000 13.500 Z"
     id="path877"
     style="stroke:#ffffff;stroke-opacity:1" />
  <path
     d="M2.834,9.495A2.5,2.5,0,0,1,1.5,5,2.5,2.5,0,1,1,5,1.5,2.5,2.5,0,0,1,9.35,3.855"
     id="path879"
     style="stroke:#ffffff;stroke-opacity:1" />
  <path
     d="M21.166,9.495A2.5,2.5,0,0,0,22.5,5,2.5,2.5,0,1,0,19,1.5a2.5,2.5,0,0,0-4.35,2.355"
     id="path881"
     style="stroke:#ffffff;stroke-opacity:1" />
  <path
     d="M8.500 14.000 A3.500 3.500 0 1 0 15.500 14.000 A3.500 3.500 0 1 0 8.500 14.000 Z"
     id="path883"
     style="stroke:#ffffff;stroke-opacity:1" />
  <path
     d="M18.5,14a6.5,6.5,0,0,1-13,0"
     id="path885"
     style="stroke:#ffffff;stroke-opacity:1" />
  <path
     d="M8.5 7L8.5 10"
     id="path887"
     style="stroke:#ffffff;stroke-opacity:1" />
  <path
     d="M10 8.5L7 8.5"
     id="path889"
     style="stroke:#ffffff;stroke-opacity:1" />
  <path
     d="M15.5 7L15.5 10"
     id="path891"
     style="stroke:#ffffff;stroke-opacity:1" />
  <path
     d="M17 8.5L14 8.5"
     id="path893"
     style="stroke:#ffffff;stroke-opacity:1" />
</svg>
