<?xml version="1.0" encoding="UTF-8" standalone="no"?>
<svg
   xmlns:dc="http://purl.org/dc/elements/1.1/"
   xmlns:cc="http://creativecommons.org/ns#"
   xmlns:rdf="http://www.w3.org/1999/02/22-rdf-syntax-ns#"
   xmlns:svg="http://www.w3.org/2000/svg"
   xmlns="http://www.w3.org/2000/svg"
   xmlns:sodipodi="http://sodipodi.sourceforge.net/DTD/sodipodi-0.dtd"
   xmlns:inkscape="http://www.inkscape.org/namespaces/inkscape"
   viewBox="0 0 24 24"
   width="16"
   height="16"
   fill="none"
   stroke="currentColor"
   stroke-width="2"
   stroke-linecap="round"
   stroke-linejoin="round"
   class="icon icon--Education"
   aria-hidden="true"
   version="1.1"
   id="svg22"
   sodipodi:docname="Education.svg"
   inkscape:version="1.0.2 (e86c870879, 2021-01-15)">
  <metadata
     id="metadata28">
    <rdf:RDF>
      <cc:Work
         rdf:about="">
        <dc:format>image/svg+xml</dc:format>
        <dc:type
           rdf:resource="http://purl.org/dc/dcmitype/StillImage" />
      </cc:Work>
    </rdf:RDF>
  </metadata>
  <defs
     id="defs26" />
  <sodipodi:namedview
     pagecolor="#ffffff"
     bordercolor="#666666"
     borderopacity="1"
     objecttolerance="10"
     gridtolerance="10"
     guidetolerance="10"
     inkscape:pageopacity="0"
     inkscape:pageshadow="2"
     inkscape:window-width="1920"
     inkscape:window-height="1006"
     id="namedview24"
     showgrid="false"
     inkscape:zoom="53.125"
     inkscape:cx="8"
     inkscape:cy="8"
     inkscape:window-x="0"
     inkscape:window-y="0"
     inkscape:window-maximized="1"
     inkscape:current-layer="svg22" />
  <g
     id="g20"
     style="fill:none;stroke:#ffffff;stroke-opacity:1">
    <path
       d="M12,14c0-1.455,2.964-3.381,8.484-3.494a.508.508,0,0,1,.516.5v8.5a.5.5,0,0,1-.5.5c-5.533.11-8.5,2.038-8.5,3.5,0-1.457-2.971-3.385-8.5-3.5a.5.5,0,0,1-.5-.5v-8.5a.508.508,0,0,1,.516-.5C9.035,10.62,12,12.546,12,14Z"
       id="path2"
       style="fill:none;stroke:#ffffff;stroke-opacity:1" />
    <path
       d="M12 14.001L12 23.376"
       id="path4"
       style="fill:none;stroke:#ffffff;stroke-opacity:1" />
    <path
       d="M10,14.742A20.1,20.1,0,0,0,5.52,13.7"
       id="path6"
       style="fill:none;stroke:#ffffff;stroke-opacity:1" />
    <path
       d="M10,17.742a20.265,20.265,0,0,0-4.521-1.048"
       id="path8"
       style="fill:none;stroke:#ffffff;stroke-opacity:1" />
    <path
       d="M14,14.742a20.2,20.2,0,0,1,4.523-1.048"
       id="path10"
       style="fill:none;stroke:#ffffff;stroke-opacity:1" />
    <path
       d="M14,17.742a20.213,20.213,0,0,1,4.524-1.048"
       id="path12"
       style="fill:none;stroke:#ffffff;stroke-opacity:1" />
    <path
       d="M4.566,9A7.5,7.5,0,1,1,19.434,9"
       id="path14"
       style="fill:none;stroke:#ffffff;stroke-opacity:1" />
    <path
       d="M9.624,9,9.189,7.259a1,1,0,0,0-.97-.758H4.651"
       id="path16"
       style="fill:none;stroke:#ffffff;stroke-opacity:1" />
    <path
       d="M17.99,3.5H15.281a1,1,0,0,0-.97.758l-.5,2a1,1,0,0,0,.97,1.242h1.052l.245,1.469"
       id="path18"
       style="fill:none;stroke:#ffffff;stroke-opacity:1" />
  </g>
</svg>
