<?xml version="1.0" encoding="UTF-8" standalone="no"?>
<svg
   xmlns:dc="http://purl.org/dc/elements/1.1/"
   xmlns:cc="http://creativecommons.org/ns#"
   xmlns:rdf="http://www.w3.org/1999/02/22-rdf-syntax-ns#"
   xmlns:svg="http://www.w3.org/2000/svg"
   xmlns="http://www.w3.org/2000/svg"
   xmlns:sodipodi="http://sodipodi.sourceforge.net/DTD/sodipodi-0.dtd"
   xmlns:inkscape="http://www.inkscape.org/namespaces/inkscape"
   viewBox="0 0 24 24"
   width="16"
   height="16"
   fill="none"
   stroke="currentColor"
   stroke-width="1.5"
   stroke-linecap="round"
   stroke-linejoin="round"
   class="icon icon--Featured"
   aria-hidden="true"
   version="1.1"
   id="svg22"
   sodipodi:docname="Featured.svg"
   inkscape:version="1.0.2 (e86c870879, 2021-01-15)">
  <metadata
     id="metadata28">
    <rdf:RDF>
      <cc:Work
         rdf:about="">
        <dc:format>image/svg+xml</dc:format>
        <dc:type
           rdf:resource="http://purl.org/dc/dcmitype/StillImage" />
      </cc:Work>
    </rdf:RDF>
  </metadata>
  <defs
     id="defs26" />
  <sodipodi:namedview
     pagecolor="#ffffff"
     bordercolor="#666666"
     borderopacity="1"
     objecttolerance="10"
     gridtolerance="10"
     guidetolerance="10"
     inkscape:pageopacity="0"
     inkscape:pageshadow="2"
     inkscape:window-width="1920"
     inkscape:window-height="1006"
     id="namedview24"
     showgrid="false"
     inkscape:zoom="26.5625"
     inkscape:cx="-1.7086686"
     inkscape:cy="8.1490834"
     inkscape:window-x="0"
     inkscape:window-y="0"
     inkscape:window-maximized="1"
     inkscape:current-layer="svg22" />
  <circle
     cx="11.06"
     cy="9"
     r="3"
     id="circle2"
     style="fill:none;stroke:#ffffff;stroke-opacity:1" />
  <path
     d="M14.03,9.53l4.53,4.531a1.414,1.414,0,0,1-2,2l-4.3-4.311"
     id="path4"
     style="fill:none;stroke:#ffffff;stroke-opacity:1" />
  <line
     x1="8.939"
     y1="11.121"
     x2="13.181"
     y2="6.88"
     id="line6"
     style="fill:none;stroke:#ffffff;stroke-opacity:1" />
  <line
     x1="15"
     y1="14.5"
     x2="15"
     y2="20.5"
     id="line8"
     style="fill:none;stroke:#ffffff;stroke-opacity:1" />
  <line
     x1="13.5"
     y1="20.5"
     x2="16.5"
     y2="20.5"
     id="line10"
     style="fill:none;stroke:#ffffff;stroke-opacity:1" />
  <ellipse
     cx="14.5"
     cy="21"
     rx="7.5"
     ry="2.5"
     id="ellipse12"
     style="fill:none;stroke:#ffffff;stroke-opacity:1" />
  <line
     x1="11.439"
     y1="14"
     x2="7.642"
     y2="19.987"
     id="line14"
     style="fill:none;stroke:#ffffff;stroke-opacity:1" />
  <path
     d="M22,21,20.141,1.947a.5.5,0,0,0-.92-.219L15.561,7.5"
     id="path16"
     style="fill:none;stroke:#ffffff;stroke-opacity:1" />
  <path
     d="M4.5,2.5A2.231,2.231,0,0,0,7,5c-1.615-.006-2.418.86-2.5,2.5A2.211,2.211,0,0,0,2,5,2.232,2.232,0,0,0,4.5,2.5Z"
     id="path18"
     style="fill:none;stroke:#ffffff;stroke-opacity:1" />
  <path
     d="M14,.5A2.231,2.231,0,0,0,16.5,3c-1.615-.006-2.418.86-2.5,2.5A2.211,2.211,0,0,0,11.5,3,2.232,2.232,0,0,0,14,.5Z"
     id="path20"
     style="fill:none;stroke:#ffffff;stroke-opacity:1" />
</svg>
