<?xml version="1.0" encoding="UTF-8" standalone="no"?>
<svg
   xmlns:dc="http://purl.org/dc/elements/1.1/"
   xmlns:cc="http://creativecommons.org/ns#"
   xmlns:rdf="http://www.w3.org/1999/02/22-rdf-syntax-ns#"
   xmlns:svg="http://www.w3.org/2000/svg"
   xmlns="http://www.w3.org/2000/svg"
   xmlns:sodipodi="http://sodipodi.sourceforge.net/DTD/sodipodi-0.dtd"
   xmlns:inkscape="http://www.inkscape.org/namespaces/inkscape"
   size="16"
   class="icon icon--Gaming"
   aria-hidden="true"
   viewBox="-2 -1 24 26"
   width="16"
   height="16"
   fill="none"
   stroke-width="1.5"
   stroke-linecap="round"
   stroke-linejoin="round"
   version="1.1"
   id="svg9"
   sodipodi:docname="Gaming.svg"
   inkscape:version="0.92.4 (5da689c313, 2019-01-14)">
  <metadata
     id="metadata15">
    <rdf:RDF>
      <cc:Work
         rdf:about="">
        <dc:format>image/svg+xml</dc:format>
        <dc:type
           rdf:resource="http://purl.org/dc/dcmitype/StillImage" />
      </cc:Work>
    </rdf:RDF>
  </metadata>
  <defs
     id="defs13" />
  <sodipodi:namedview
     pagecolor="#ffffff"
     bordercolor="#666666"
     borderopacity="1"
     objecttolerance="10"
     gridtolerance="10"
     guidetolerance="10"
     inkscape:pageopacity="0"
     inkscape:pageshadow="2"
     inkscape:window-width="1918"
     inkscape:window-height="1052"
     id="namedview11"
     showgrid="false"
     inkscape:zoom="14.75"
     inkscape:cx="-5.2881356"
     inkscape:cy="8"
     inkscape:window-x="0"
     inkscape:window-y="26"
     inkscape:window-maximized="0"
     inkscape:current-layer="svg9" />
  <g
     id="g7"
     style="stroke:#fdfdfd;stroke-opacity:1">
    <path
       d="M17.5,9 C17.5,4.307 13.694,0.5 9,0.5 C4.306,0.5 0.5,4.307 0.5,9 L0.5,22.5 C0.5,23.051 0.95,23.5 1.5,23.5 L2,23.5 C2.551,23.5 3,23.051 3,22.5 C3,21.951 3.45,21.5 4,21.5 C4.551,21.5 5,21.951 5,22.5 C5,23.051 5.45,23.5 6,23.5 L7,23.5 C7.551,23.5 8,23.051 8,22.5 C8,21.951 8.45,21.5 9,21.5 C9.551,21.5 10,21.951 10,22.5 C10,23.051 10.45,23.5 11,23.5 L12,23.5 C12.551,23.5 13,23.051 13,22.5 C13,21.951 13.45,21.5 14,21.5 C14.551,21.5 15,21.951 15,22.5 C15,23.051 15.45,23.5 16,23.5 L16.5,23.5 C17.051,23.5 17.5,23.051 17.5,22.5 L17.5,9 L17.5,9 Z"
       id="Stroke-939"
       style="stroke:#fdfdfd;stroke-opacity:1" />
    <path
       d="M13.5,12 C13.5,12.826 12.825,13.5 12,13.5 C11.176,13.5 10.5,12.826 10.5,12 L10.5,9 C10.5,8.176 11.176,7.5 12,7.5 C12.825,7.5 13.5,8.176 13.5,9 L13.5,12 L13.5,12 Z"
       id="Stroke-940"
       style="stroke:#fdfdfd;stroke-opacity:1" />
    <path
       d="M11.5,11 C11.5,11.277 11.276,11.5 11,11.5 C10.724,11.5 10.5,11.277 10.5,11 C10.5,10.725 10.724,10.5 11,10.5 C11.276,10.5 11.5,10.725 11.5,11 L11.5,11 Z"
       id="Stroke-941"
       style="stroke:#fdfdfd;stroke-opacity:1" />
    <path
       d="M7.5,12 C7.5,12.826 6.825,13.5 6,13.5 C5.176,13.5 4.5,12.826 4.5,12 L4.5,9 C4.5,8.176 5.176,7.5 6,7.5 C6.825,7.5 7.5,8.176 7.5,9 L7.5,12 L7.5,12 Z"
       id="Stroke-942"
       style="stroke:#fdfdfd;stroke-opacity:1" />
    <path
       d="M5.5,11 C5.5,11.277 5.276,11.5 5,11.5 C4.724,11.5 4.5,11.277 4.5,11 C4.5,10.725 4.724,10.5 5,10.5 C5.276,10.5 5.5,10.725 5.5,11 L5.5,11 Z"
       id="Stroke-943"
       style="stroke:#fdfdfd;stroke-opacity:1" />
  </g>
</svg>
