<?xml version="1.0" encoding="UTF-8" standalone="no"?>
<svg
   xmlns:dc="http://purl.org/dc/elements/1.1/"
   xmlns:cc="http://creativecommons.org/ns#"
   xmlns:rdf="http://www.w3.org/1999/02/22-rdf-syntax-ns#"
   xmlns:svg="http://www.w3.org/2000/svg"
   xmlns="http://www.w3.org/2000/svg"
   xmlns:sodipodi="http://sodipodi.sourceforge.net/DTD/sodipodi-0.dtd"
   xmlns:inkscape="http://www.inkscape.org/namespaces/inkscape"
   viewBox="0 0 24 24"
   height="16"
   width="16"
   fill="none"
   stroke="currentColor"
   stroke-linecap="round"
   stroke-linejoin="round"
   class="icon icon--Lifestyle"
   aria-hidden="true"
   version="1.1"
   id="svg22"
   sodipodi:docname="Lifestyle.svg"
   inkscape:version="1.0.2 (e86c870879, 2021-01-15)">
  <metadata
     id="metadata28">
    <rdf:RDF>
      <cc:Work
         rdf:about="">
        <dc:format>image/svg+xml</dc:format>
        <dc:type
           rdf:resource="http://purl.org/dc/dcmitype/StillImage" />
      </cc:Work>
    </rdf:RDF>
  </metadata>
  <defs
     id="defs26" />
  <sodipodi:namedview
     pagecolor="#ffffff"
     bordercolor="#666666"
     borderopacity="1"
     objecttolerance="10"
     gridtolerance="10"
     guidetolerance="10"
     inkscape:pageopacity="0"
     inkscape:pageshadow="2"
     inkscape:window-width="1920"
     inkscape:window-height="1034"
     id="namedview24"
     showgrid="false"
     inkscape:zoom="45.4375"
     inkscape:cx="8"
     inkscape:cy="8"
     inkscape:window-x="0"
     inkscape:window-y="0"
     inkscape:window-maximized="1"
     inkscape:current-layer="svg22" />
  <path
     d="M8.906,8.611c1.116,1.278,1.285,2.824,1.61,4.761"
     stroke="white"
     id="path2" />
  <path
     d="M15.716,9.317c-.323,1.42-.689,2.852-.936,4.288"
     stroke="white"
     id="path4" />
  <path
     d="M10.93,3.98a1.75,1.75,0,0,0-2.664-1.5,1.748,1.748,0,0,0,.026-.261,1.759,1.759,0,0,0-3.518,0,1.748,1.748,0,0,0,.026.261,1.755,1.755,0,1,0-.953,3.257A1.753,1.753,0,1,0,6.533,7.894,1.753,1.753,0,1,0,9.219,5.735,1.759,1.759,0,0,0,10.93,3.98Z"
     stroke="white"
     id="path6" />
  <path
     d="M21.861,4.846a1.647,1.647,0,0,0-2.508-1.411,1.552,1.552,0,0,0,.024-.245,1.656,1.656,0,1,0-3.312,0,1.553,1.553,0,0,0,.025.245,1.652,1.652,0,1,0-.9,3.067A1.65,1.65,0,1,0,17.721,8.53a1.65,1.65,0,1,0,2.91-1.558A1.632,1.632,0,0,0,20.25,6.5,1.655,1.655,0,0,0,21.861,4.846Z"
     stroke="white"
     id="path8" />
  <path
     d="M15.169,15.265A5.643,5.643,0,0,1,12,19.291c-.355-1.493-3.135-3.5-1.707-5.658.705-1.065,2.384-.687,2.384-.687C14.481,12.883,15.415,13.753,15.169,15.265Z"
     stroke="white"
     id="path10" />
  <path
     d="M20.448,13.532a5.639,5.639,0,0,1-.782,5.062c-1.041-1.126-4.449-1.509-4.265-4.09.091-1.273,1.739-1.769,1.739-1.769C18.679,11.8,19.92,12.094,20.448,13.532Z"
     stroke="white"
     id="path12" />
  <path
     d="M7.938,13.2s1.661.449,1.788,1.719c.256,2.575-3.139,3.054-4.149,4.209a5.645,5.645,0,0,1-.924-5.039C5.141,12.64,6.373,12.306,7.938,13.2Z"
     stroke="white"
     id="path14" />
  <path
     d="M18.823,17.994l-.951,4.758a.983.983,0,0,1-.964.785H8.7a.982.982,0,0,1-.963-.785l-.9-4.487"
     stroke="white"
     id="path16" />
  <circle
     cx="6.566"
     cy="4.779"
     r="1"
     id="circle18"
     style="stroke:#ffffff;stroke-opacity:1" />
  <circle
     cx="17.723"
     cy="5.472"
     r="1"
     id="circle20"
     style="fill:none;stroke:#ffffff;stroke-opacity:1" />
</svg>
