<?xml version="1.0" encoding="UTF-8" standalone="no"?>
<svg
   xmlns:dc="http://purl.org/dc/elements/1.1/"
   xmlns:cc="http://creativecommons.org/ns#"
   xmlns:rdf="http://www.w3.org/1999/02/22-rdf-syntax-ns#"
   xmlns:svg="http://www.w3.org/2000/svg"
   xmlns="http://www.w3.org/2000/svg"
   xmlns:sodipodi="http://sodipodi.sourceforge.net/DTD/sodipodi-0.dtd"
   xmlns:inkscape="http://www.inkscape.org/namespaces/inkscape"
   size="16"
   class="icon icon--Movies"
   aria-hidden="true"
   viewBox="0 0 24 24"
   width="16"
   height="16"
   fill="none"
   stroke="currentColor"
   stroke-width="2"
   stroke-linecap="round"
   stroke-linejoin="round"
   version="1.1"
   id="svg20"
   sodipodi:docname="Movies.svg"
   inkscape:version="0.92.4 (5da689c313, 2019-01-14)">
  <metadata
     id="metadata26">
    <rdf:RDF>
      <cc:Work
         rdf:about="">
        <dc:format>image/svg+xml</dc:format>
        <dc:type
           rdf:resource="http://purl.org/dc/dcmitype/StillImage" />
      </cc:Work>
    </rdf:RDF>
  </metadata>
  <defs
     id="defs24" />
  <sodipodi:namedview
     pagecolor="#ffffff"
     bordercolor="#666666"
     borderopacity="1"
     objecttolerance="10"
     gridtolerance="10"
     guidetolerance="10"
     inkscape:pageopacity="0"
     inkscape:pageshadow="2"
     inkscape:window-width="1918"
     inkscape:window-height="1052"
     id="namedview22"
     showgrid="false"
     inkscape:zoom="14.75"
     inkscape:cx="-5.2881356"
     inkscape:cy="8"
     inkscape:window-x="0"
     inkscape:window-y="26"
     inkscape:window-maximized="0"
     inkscape:current-layer="svg20" />
  <g
     transform="matrix(1,0,0,1,0,0)"
     id="g18"
     style="stroke:#ffffff;stroke-opacity:1">
    <path
       d="M19.5,11.75a3.751,3.751,0,0,1,3.124-3.7.75.75,0,0,0,.626-.739V5a1.5,1.5,0,0,0-1.5-1.5H2.25A1.5,1.5,0,0,0,.75,5V7.313a.749.749,0,0,0,.626.739,3.751,3.751,0,0,1,0,7.4.75.75,0,0,0-.626.739V18.5A1.5,1.5,0,0,0,2.25,20h19.5a1.5,1.5,0,0,0,1.5-1.5V16.187a.749.749,0,0,0-.626-.739A3.751,3.751,0,0,1,19.5,11.75Z"
       id="path2"
       style="stroke:#ffffff;stroke-opacity:1" />
    <path
       d="M4.5 6.5L6.75 6.5"
       id="path4"
       style="stroke:#ffffff;stroke-opacity:1" />
    <path
       d="M10.5 6.5L13.5 6.5"
       id="path6"
       style="stroke:#ffffff;stroke-opacity:1" />
    <path
       d="M17.25 6.5L19.5 6.5"
       id="path8"
       style="stroke:#ffffff;stroke-opacity:1" />
    <path
       d="M4.5 17L6.75 17"
       id="path10"
       style="stroke:#ffffff;stroke-opacity:1" />
    <path
       d="M10.5 17L13.5 17"
       id="path12"
       style="stroke:#ffffff;stroke-opacity:1" />
    <path
       d="M17.25 17L19.5 17"
       id="path14"
       style="stroke:#ffffff;stroke-opacity:1" />
    <path
       d="M12.624,10.436a.75.75,0,0,0-1.248,0l-1.6,2.4A.75.75,0,0,0,10.4,14h3.2a.75.75,0,0,0,.624-1.166Z"
       id="path16"
       style="stroke:#ffffff;stroke-opacity:1" />
  </g>
</svg>
