<?xml version="1.0" encoding="UTF-8" standalone="no"?>
<svg
   xmlns:dc="http://purl.org/dc/elements/1.1/"
   xmlns:cc="http://creativecommons.org/ns#"
   xmlns:rdf="http://www.w3.org/1999/02/22-rdf-syntax-ns#"
   xmlns:svg="http://www.w3.org/2000/svg"
   xmlns="http://www.w3.org/2000/svg"
   xmlns:sodipodi="http://sodipodi.sourceforge.net/DTD/sodipodi-0.dtd"
   xmlns:inkscape="http://www.inkscape.org/namespaces/inkscape"
   viewBox="0 0 24 24"
   width="16"
   height="16"
   fill="none"
   stroke="currentColor"
   stroke-width="2"
   stroke-linecap="round"
   stroke-linejoin="round"
   class="icon icon--MusicCategory"
   aria-hidden="true"
   version="1.1"
   id="svg12"
   sodipodi:docname="MusicCategory.svg"
   inkscape:version="0.92.4 (5da689c313, 2019-01-14)">
  <metadata
     id="metadata18">
    <rdf:RDF>
      <cc:Work
         rdf:about="">
        <dc:format>image/svg+xml</dc:format>
        <dc:type
           rdf:resource="http://purl.org/dc/dcmitype/StillImage" />
      </cc:Work>
    </rdf:RDF>
  </metadata>
  <defs
     id="defs16" />
  <sodipodi:namedview
     pagecolor="#ffffff"
     bordercolor="#666666"
     borderopacity="1"
     objecttolerance="10"
     gridtolerance="10"
     guidetolerance="10"
     inkscape:pageopacity="0"
     inkscape:pageshadow="2"
     inkscape:window-width="1918"
     inkscape:window-height="1052"
     id="namedview14"
     showgrid="false"
     inkscape:zoom="14.75"
     inkscape:cx="-5.2881356"
     inkscape:cy="8"
     inkscape:window-x="0"
     inkscape:window-y="26"
     inkscape:window-maximized="0"
     inkscape:current-layer="svg12" />
  <g
     id="g10"
     style="stroke:#ffffff;stroke-opacity:1">
    <path
       d="M19.8 6.267a1 1 0 01-1.414 0l-1.411-1.414a1 1 0 010-1.415l.186-.186a1 1 0 01.391-.242l4.536-1.51a.927.927 0 01.949 1.535z"
       id="path2"
       style="stroke:#ffffff;stroke-opacity:1" />
    <path
       d="M16.975 4.853L9.55 12.277l1.414 1.414 7.425-7.424"
       id="path4"
       style="stroke:#ffffff;stroke-opacity:1" />
    <path
       d="M11.187 10.64a2.881 2.881 0 01-.8-2.538 6.278 6.278 0 01.738-1.99A1.15 1.15 0 009.3 4.749a6.56 6.56 0 00-1.91 3.406c-.22 1.038-1 2.463-2.1 2.485a4.638 4.638 0 00-4.6 4.746 5.927 5.927 0 001.812 4.249l1.1 1.1a5.93 5.93 0 004.249 1.812 4.639 4.639 0 004.746-4.6c0-1.1 1.235-1.789 2.286-1.755a4.13 4.13 0 003.324-1.269 1.1 1.1 0 00-.719-1.846c-3.306-.254-4-.141-4.891-1.029M7.782 13.338l2.122 2.121"
       id="path6"
       style="stroke:#ffffff;stroke-opacity:1" />
    <path
       d="M4.954 14.753l3.535 3.535-1.768 1.768-3.535-3.535z"
       id="path8"
       style="stroke:#ffffff;stroke-opacity:1" />
  </g>
</svg>
