<?xml version="1.0" encoding="UTF-8" standalone="no"?>
<svg
   xmlns:dc="http://purl.org/dc/elements/1.1/"
   xmlns:cc="http://creativecommons.org/ns#"
   xmlns:rdf="http://www.w3.org/1999/02/22-rdf-syntax-ns#"
   xmlns:svg="http://www.w3.org/2000/svg"
   xmlns="http://www.w3.org/2000/svg"
   xmlns:sodipodi="http://sodipodi.sourceforge.net/DTD/sodipodi-0.dtd"
   xmlns:inkscape="http://www.inkscape.org/namespaces/inkscape"
   size="16"
   class="icon icon--Peace"
   aria-hidden="true"
   viewBox="0 0 24 24"
   width="16"
   height="16"
   fill="none"
   stroke-width="1.5"
   stroke-linecap="round"
   stroke-linejoin="round"
   version="1.1"
   id="svg14"
   sodipodi:docname="Peace.svg"
   inkscape:version="0.92.4 (5da689c313, 2019-01-14)">
  <metadata
     id="metadata20">
    <rdf:RDF>
      <cc:Work
         rdf:about="">
        <dc:format>image/svg+xml</dc:format>
        <dc:type
           rdf:resource="http://purl.org/dc/dcmitype/StillImage" />
      </cc:Work>
    </rdf:RDF>
  </metadata>
  <defs
     id="defs18" />
  <sodipodi:namedview
     pagecolor="#ffffff"
     bordercolor="#666666"
     borderopacity="1"
     objecttolerance="10"
     gridtolerance="10"
     guidetolerance="10"
     inkscape:pageopacity="0"
     inkscape:pageshadow="2"
     inkscape:window-width="1048"
     inkscape:window-height="1652"
     id="namedview16"
     showgrid="false"
     inkscape:zoom="14.75"
     inkscape:cx="-0.44067797"
     inkscape:cy="8"
     inkscape:window-x="1920"
     inkscape:window-y="26"
     inkscape:window-maximized="0"
     inkscape:current-layer="svg14" />
  <g
     transform="matrix(1,0,0,1,0,0)"
     id="g12"
     style="stroke:#ffffff;stroke-opacity:1">
    <path
       d="M0.500 12.000 A11.500 11.500 0 1 0 23.500 12.000 A11.500 11.500 0 1 0 0.500 12.000 Z"
       fill="none"
       stroke-linecap="round"
       stroke-linejoin="round"
       id="path2"
       style="stroke:#ffffff;stroke-opacity:1" />
    <path
       d="M13.5,3.642a8.5,8.5,0,0,1,6.24,11.877L13.5,9.354Z"
       fill="none"
       stroke-linecap="round"
       stroke-linejoin="round"
       id="path4"
       style="stroke:#ffffff;stroke-opacity:1" />
    <path
       d="M13.5,13.6l4.471,4.455A8.529,8.529,0,0,1,13.5,20.365Z"
       fill="none"
       stroke-linecap="round"
       stroke-linejoin="round"
       id="path6"
       style="stroke:#ffffff;stroke-opacity:1" />
    <path
       d="M4.33,15.549,10.5,9.354V3.635A8.517,8.517,0,0,0,3.5,12,7.583,7.583,0,0,0,4.33,15.549Z"
       fill="none"
       stroke-linecap="round"
       stroke-linejoin="round"
       id="path8"
       style="stroke:#ffffff;stroke-opacity:1" />
    <path
       d="M10.5,20.364a8.543,8.543,0,0,1-4.463-2.306L10.5,13.6Z"
       fill="none"
       stroke-linecap="round"
       stroke-linejoin="round"
       id="path10"
       style="stroke:#ffffff;stroke-opacity:1" />
  </g>
</svg>
