<?xml version="1.0" encoding="UTF-8" standalone="no"?>
<svg
   xmlns:dc="http://purl.org/dc/elements/1.1/"
   xmlns:cc="http://creativecommons.org/ns#"
   xmlns:rdf="http://www.w3.org/1999/02/22-rdf-syntax-ns#"
   xmlns:svg="http://www.w3.org/2000/svg"
   xmlns="http://www.w3.org/2000/svg"
   xmlns:sodipodi="http://sodipodi.sourceforge.net/DTD/sodipodi-0.dtd"
   xmlns:inkscape="http://www.inkscape.org/namespaces/inkscape"
   viewBox="0 0 24 24"
   width="16"
   height="16"
   fill="none"
   stroke="currentColor"
   stroke-width="2"
   stroke-linecap="round"
   stroke-linejoin="round"
   class="icon icon--Pop Culture"
   aria-hidden="true"
   version="1.1"
   id="svg6"
   sodipodi:docname="PopCulture.svg"
   inkscape:version="1.0.2 (e86c870879, 2021-01-15)">
  <metadata
     id="metadata12">
    <rdf:RDF>
      <cc:Work
         rdf:about="">
        <dc:format>image/svg+xml</dc:format>
        <dc:type
           rdf:resource="http://purl.org/dc/dcmitype/StillImage" />
      </cc:Work>
    </rdf:RDF>
  </metadata>
  <defs
     id="defs10" />
  <sodipodi:namedview
     pagecolor="#ffffff"
     bordercolor="#666666"
     borderopacity="1"
     objecttolerance="10"
     gridtolerance="10"
     guidetolerance="10"
     inkscape:pageopacity="0"
     inkscape:pageshadow="2"
     inkscape:window-width="1920"
     inkscape:window-height="1006"
     id="namedview8"
     showgrid="false"
     inkscape:zoom="53.125"
     inkscape:cx="8"
     inkscape:cy="8"
     inkscape:window-x="0"
     inkscape:window-y="0"
     inkscape:window-maximized="1"
     inkscape:current-layer="svg6" />
  <g
     id="g4"
     style="fill:none;stroke:#ffffff;stroke-opacity:1">
    <path
       d="M23.5,12.11a7,7,0,0,1-3.27,5.59.26.26,0,0,1-.32,0,.27.27,0,0,1-.05-.31A2.71,2.71,0,0,0,20,17c.65-1.4.5-2.85-.34-3.25s-2,.41-2.67,1.77c.06-.93-.26-1.7-.86-1.88-1.27-.4-1.77,1.24-4.17,5.44-2.44-4.27-2.9-5.84-4.17-5.44-.6.18-.92.95-.86,1.88-.66-1.36-1.84-2.15-2.67-1.77S3.31,15.63,4,17a2.71,2.71,0,0,0,.18.34.27.27,0,0,1,0,.31.26.26,0,0,1-.32,0A7,7,0,0,1,.5,12.11C.5,8.93,3.17,6.18,7,4.9a.25.25,0,0,1,.32.3L7,6.73a3.37,3.37,0,0,0,.78,3,1,1,0,0,0,1.1.28,1,1,0,0,0,.65-.94V5.61a.25.25,0,0,1,.4-.2l1.6,1.2h1l1.6-1.2a.25.25,0,0,1,.4.2V9.05a1,1,0,0,0,.65.94,1,1,0,0,0,1.1-.28,3.35,3.35,0,0,0,.78-3L16.65,5.2A.25.25,0,0,1,17,4.9C20.83,6.18,23.5,8.93,23.5,12.11Z"
       id="path2"
       style="fill:none;stroke:#ffffff;stroke-opacity:1" />
  </g>
</svg>
