<?xml version="1.0" encoding="UTF-8" standalone="no"?>
<svg
   xmlns:dc="http://purl.org/dc/elements/1.1/"
   xmlns:cc="http://creativecommons.org/ns#"
   xmlns:rdf="http://www.w3.org/1999/02/22-rdf-syntax-ns#"
   xmlns:svg="http://www.w3.org/2000/svg"
   xmlns="http://www.w3.org/2000/svg"
   xmlns:sodipodi="http://sodipodi.sourceforge.net/DTD/sodipodi-0.dtd"
   xmlns:inkscape="http://www.inkscape.org/namespaces/inkscape"
   viewBox="0 0 24 24"
   height="16"
   width="16"
   fill="none"
   stroke="currentColor"
   stroke-linecap="round"
   stroke-linejoin="round"
   class="icon icon--RabbitHole"
   aria-hidden="true"
   version="1.1"
   id="svg12"
   sodipodi:docname="RabbitHole.svg"
   inkscape:version="1.0.2 (e86c870879, 2021-01-15)">
  <metadata
     id="metadata18">
    <rdf:RDF>
      <cc:Work
         rdf:about="">
        <dc:format>image/svg+xml</dc:format>
        <dc:type
           rdf:resource="http://purl.org/dc/dcmitype/StillImage" />
      </cc:Work>
    </rdf:RDF>
  </metadata>
  <defs
     id="defs16" />
  <sodipodi:namedview
     pagecolor="#ffffff"
     bordercolor="#666666"
     borderopacity="1"
     objecttolerance="10"
     gridtolerance="10"
     guidetolerance="10"
     inkscape:pageopacity="0"
     inkscape:pageshadow="2"
     inkscape:window-width="1920"
     inkscape:window-height="1032"
     id="namedview14"
     showgrid="false"
     inkscape:zoom="45.4375"
     inkscape:cx="8"
     inkscape:cy="8"
     inkscape:window-x="0"
     inkscape:window-y="0"
     inkscape:window-maximized="1"
     inkscape:current-layer="svg12" />
  <path
     d="M17.865,21.451a.5.5,0,0,1-.488.609H6.123a.5.5,0,0,1-.488-.609L7.5,13.06H16Z"
     id="path2"
     style="stroke:#ffffff;stroke-opacity:1" />
  <path
     d="M4 13.06L20 13.06"
     id="path4"
     style="stroke:#ffffff;stroke-opacity:1" />
  <path
     d="M6.611 17.06L16.889 17.06"
     id="path6"
     style="stroke:#ffffff;stroke-opacity:1" />
  <path
     d="M11,13.06a47.171,47.171,0,0,0-1.5-8c-.851-2.554-2.077-3.474-3.5-3-1.5.5-1,2-.5,4s2.5,7,2.5,7"
     id="path8"
     style="stroke:#ffffff;stroke-opacity:1" />
  <path
     d="M15,13.06l1.067-3.18a4.529,4.529,0,0,0,.943.37c1.195.318,2.263-.393,1.7-1.683A7.652,7.652,0,0,0,16.648,6.02C16,5.446,14.9,4.456,13.972,5.071,12.216,6.241,11.5,13.06,11.5,13.06"
     id="path10"
     style="stroke:#ffffff;stroke-opacity:1" />
</svg>
