<?xml version="1.0" encoding="UTF-8" standalone="no"?>
<svg
   xmlns:dc="http://purl.org/dc/elements/1.1/"
   xmlns:cc="http://creativecommons.org/ns#"
   xmlns:rdf="http://www.w3.org/1999/02/22-rdf-syntax-ns#"
   xmlns:svg="http://www.w3.org/2000/svg"
   xmlns="http://www.w3.org/2000/svg"
   xmlns:sodipodi="http://sodipodi.sourceforge.net/DTD/sodipodi-0.dtd"
   xmlns:inkscape="http://www.inkscape.org/namespaces/inkscape"
   size="16"
   class="icon icon--Speaker"
   aria-hidden="true"
   viewBox="-5 0 24 24"
   width="16"
   height="16"
   fill="none"
   stroke-width="1.5"
   stroke-linecap="round"
   stroke-linejoin="round"
   version="1.1"
   id="svg7"
   sodipodi:docname="Speaker.svg"
   inkscape:version="0.92.4 (5da689c313, 2019-01-14)">
  <metadata
     id="metadata13">
    <rdf:RDF>
      <cc:Work
         rdf:about="">
        <dc:format>image/svg+xml</dc:format>
        <dc:type
           rdf:resource="http://purl.org/dc/dcmitype/StillImage" />
      </cc:Work>
    </rdf:RDF>
  </metadata>
  <defs
     id="defs11" />
  <sodipodi:namedview
     pagecolor="#ffffff"
     bordercolor="#666666"
     borderopacity="1"
     objecttolerance="10"
     gridtolerance="10"
     guidetolerance="10"
     inkscape:pageopacity="0"
     inkscape:pageshadow="2"
     inkscape:window-width="1918"
     inkscape:window-height="1052"
     id="namedview9"
     showgrid="false"
     inkscape:zoom="14.75"
     inkscape:cx="-6.4745763"
     inkscape:cy="8"
     inkscape:window-x="0"
     inkscape:window-y="26"
     inkscape:window-maximized="0"
     inkscape:current-layer="svg7" />
  <path
     d="M13.5005,21.5 C13.5005,22.604 12.6055,23.5 11.5005,23.5 L2.5005,23.5 C1.3955,23.5 0.5005,22.604 0.5005,21.5 L0.5005,2.5 C0.5005,1.396 1.3955,0.5 2.5005,0.5 L11.5005,0.5 C12.6055,0.5 13.5005,1.396 13.5005,2.5 L13.5005,21.5 L13.5005,21.5 Z"
     id="Stroke-5155"
     stroke-linecap="round"
     style="stroke:#ffffff;stroke-opacity:1" />
  <line
     x1="13.5005"
     y1="19.5"
     x2="0.5005"
     y2="19.5"
     id="Stroke-5156"
     stroke-linecap="round"
     style="stroke:#ffffff;stroke-opacity:1" />
  <line
     x1="13.5005"
     y1="4.5"
     x2="0.5005"
     y2="4.5"
     id="Stroke-5157"
     stroke-linecap="round"
     style="stroke:#ffffff;stroke-opacity:1" />
  <line
     x1="4.5005"
     y1="2.5"
     x2="9.5005"
     y2="2.5"
     id="Stroke-5158"
     stroke-linecap="round"
     style="stroke:#ffffff;stroke-opacity:1" />
  <path
     d="M7.0005,22 C6.7245,22 6.5005,21.776 6.5005,21.5 C6.5005,21.224 6.7245,21 7.0005,21 C7.2765,21 7.5005,21.224 7.5005,21.5 C7.5005,21.776 7.2765,22 7.0005,22 L7.0005,22 Z"
     id="Stroke-5159"
     style="stroke:#ffffff;stroke-opacity:1" />
</svg>
