<?xml version="1.0" encoding="UTF-8" standalone="no"?>
<svg
   xmlns:dc="http://purl.org/dc/elements/1.1/"
   xmlns:cc="http://creativecommons.org/ns#"
   xmlns:rdf="http://www.w3.org/1999/02/22-rdf-syntax-ns#"
   xmlns:svg="http://www.w3.org/2000/svg"
   xmlns="http://www.w3.org/2000/svg"
   xmlns:sodipodi="http://sodipodi.sourceforge.net/DTD/sodipodi-0.dtd"
   xmlns:inkscape="http://www.inkscape.org/namespaces/inkscape"
   size="16"
   class="icon icon--Universe"
   aria-hidden="true"
   viewBox="0 0 25 24"
   width="16"
   height="16"
   fill="none"
   stroke-width="1.5"
   stroke-linecap="round"
   stroke-linejoin="round"
   version="1.1"
   id="svg14"
   sodipodi:docname="Universe.svg"
   inkscape:version="0.92.4 (5da689c313, 2019-01-14)">
  <metadata
     id="metadata20">
    <rdf:RDF>
      <cc:Work
         rdf:about="">
        <dc:format>image/svg+xml</dc:format>
        <dc:type
           rdf:resource="http://purl.org/dc/dcmitype/StillImage" />
      </cc:Work>
    </rdf:RDF>
  </metadata>
  <defs
     id="defs18" />
  <sodipodi:namedview
     pagecolor="#ffffff"
     bordercolor="#666666"
     borderopacity="1"
     objecttolerance="10"
     gridtolerance="10"
     guidetolerance="10"
     inkscape:pageopacity="0"
     inkscape:pageshadow="2"
     inkscape:window-width="1918"
     inkscape:window-height="1052"
     id="namedview16"
     showgrid="false"
     inkscape:zoom="14.75"
     inkscape:cx="-5.2881356"
     inkscape:cy="8"
     inkscape:window-x="0"
     inkscape:window-y="26"
     inkscape:window-maximized="0"
     inkscape:current-layer="svg14" />
  <g
     transform="matrix(1,0,0,1,0,0)"
     id="g12"
     style="stroke:#fffbfb;stroke-opacity:1">
    <path
       d="M5.33,17.848A9.545,9.545,0,0,1,16.466,2.488"
       fill="none"
       stroke-linecap="round"
       stroke-linejoin="round"
       id="path2"
       style="stroke:#fffbfb;stroke-opacity:1" />
    <path
       d="M1.982,17.78C.769,19.905.363,21.554,1.048,22.24c1.04,1.039,4.294-.43,8.062-3.418"
       fill="none"
       stroke-linecap="round"
       stroke-linejoin="round"
       id="path4"
       style="stroke:#fffbfb;stroke-opacity:1" />
    <path
       d="M13.423,18.067l-3.58-3.58L17.8,6.53A5.054,5.054,0,0,1,20.153,5.2L22.2,4.686a.844.844,0,0,1,1.023,1.023l-.512,2.048a5.059,5.059,0,0,1-1.332,2.352Z"
       fill="none"
       stroke-linecap="round"
       stroke-linejoin="round"
       id="path6"
       style="stroke:#fffbfb;stroke-opacity:1" />
    <path
       d="M9.843,14.487,6.911,13.51a.422.422,0,0,1-.165-.7l1.022-1.022a3.383,3.383,0,0,1,3.462-.817l1.6.532Z"
       fill="none"
       stroke-linecap="round"
       stroke-linejoin="round"
       id="path8"
       style="stroke:#fffbfb;stroke-opacity:1" />
    <path
       d="M13.423,18.067,14.4,21a.422.422,0,0,0,.7.165l1.022-1.022a3.383,3.383,0,0,0,.817-3.462l-.532-1.6Z"
       fill="none"
       stroke-linecap="round"
       stroke-linejoin="round"
       id="path10"
       style="stroke:#fffbfb;stroke-opacity:1" />
  </g>
</svg>
