<?xml version="1.0" encoding="UTF-8" standalone="no"?>
<svg
   xmlns:dc="http://purl.org/dc/elements/1.1/"
   xmlns:cc="http://creativecommons.org/ns#"
   xmlns:rdf="http://www.w3.org/1999/02/22-rdf-syntax-ns#"
   xmlns:svg="http://www.w3.org/2000/svg"
   xmlns="http://www.w3.org/2000/svg"
   xmlns:sodipodi="http://sodipodi.sourceforge.net/DTD/sodipodi-0.dtd"
   xmlns:inkscape="http://www.inkscape.org/namespaces/inkscape"
   viewBox="0 0 24 24"
   width="16"
   height="16"
   fill="none"
   stroke="currentColor"
   stroke-width="2"
   stroke-linecap="round"
   stroke-linejoin="round"
   class="icon icon--WildWest"
   aria-hidden="true"
   version="1.1"
   id="svg50"
   sodipodi:docname="WildWest.svg"
   inkscape:version="0.92.4 (5da689c313, 2019-01-14)">
  <metadata
     id="metadata56">
    <rdf:RDF>
      <cc:Work
         rdf:about="">
        <dc:format>image/svg+xml</dc:format>
        <dc:type
           rdf:resource="http://purl.org/dc/dcmitype/StillImage" />
      </cc:Work>
    </rdf:RDF>
  </metadata>
  <defs
     id="defs54" />
  <sodipodi:namedview
     pagecolor="#ffffff"
     bordercolor="#666666"
     borderopacity="1"
     objecttolerance="10"
     gridtolerance="10"
     guidetolerance="10"
     inkscape:pageopacity="0"
     inkscape:pageshadow="2"
     inkscape:window-width="1918"
     inkscape:window-height="1052"
     id="namedview52"
     showgrid="false"
     inkscape:zoom="14.75"
     inkscape:cx="-5.2881356"
     inkscape:cy="8"
     inkscape:window-x="0"
     inkscape:window-y="26"
     inkscape:window-maximized="0"
     inkscape:current-layer="svg50" />
  <g
     transform="matrix(1,0,0,1,0,0)"
     id="g48"
     style="stroke:#ffffff;stroke-opacity:1">
    <path
       d="M12.546,23.25H11.454A10.7,10.7,0,0,1,2.161,7.235L3.75,4.453V2.25A1.5,1.5,0,0,1,5.25.75h3a1.5,1.5,0,0,1,1.5,1.5v3a2.988,2.988,0,0,1-.4,1.488L7.37,10.211a4.7,4.7,0,0,0,4.084,7.039h1.092a4.7,4.7,0,0,0,4.084-7.039L14.646,6.738a2.988,2.988,0,0,1-.4-1.488v-3a1.5,1.5,0,0,1,1.5-1.5h3a1.5,1.5,0,0,1,1.5,1.5v2.2l1.589,2.782A10.7,10.7,0,0,1,12.546,23.25Z"
       fill="none"
       stroke-linecap="round"
       stroke-linejoin="round"
       stroke-width="1.5"
       id="path2"
       style="stroke:#ffffff;stroke-opacity:1" />
    <path
       d="M12,19.875a.375.375,0,0,1,.375.375"
       fill="none"
       stroke-linecap="round"
       stroke-linejoin="round"
       stroke-width="1.5"
       id="path4"
       style="stroke:#ffffff;stroke-opacity:1" />
    <path
       d="M11.625,20.25A.375.375,0,0,1,12,19.875"
       fill="none"
       stroke-linecap="round"
       stroke-linejoin="round"
       stroke-width="1.5"
       id="path6"
       style="stroke:#ffffff;stroke-opacity:1" />
    <path
       d="M12,20.625a.375.375,0,0,1-.375-.375"
       fill="none"
       stroke-linecap="round"
       stroke-linejoin="round"
       stroke-width="1.5"
       id="path8"
       style="stroke:#ffffff;stroke-opacity:1" />
    <path
       d="M12.375,20.25a.375.375,0,0,1-.375.375"
       fill="none"
       stroke-linecap="round"
       stroke-linejoin="round"
       stroke-width="1.5"
       id="path10"
       style="stroke:#ffffff;stroke-opacity:1" />
    <path
       d="M17.813,17.313a.375.375,0,0,1,.529-.024"
       fill="none"
       stroke-linecap="round"
       stroke-linejoin="round"
       stroke-width="1.5"
       id="path12"
       style="stroke:#ffffff;stroke-opacity:1" />
    <path
       d="M17.836,17.843a.376.376,0,0,1-.023-.53"
       fill="none"
       stroke-linecap="round"
       stroke-linejoin="round"
       stroke-width="1.5"
       id="path14"
       style="stroke:#ffffff;stroke-opacity:1" />
    <path
       d="M18.366,17.819a.375.375,0,0,1-.53.024"
       fill="none"
       stroke-linecap="round"
       stroke-linejoin="round"
       stroke-width="1.5"
       id="path16"
       style="stroke:#ffffff;stroke-opacity:1" />
    <path
       d="M18.342,17.289a.375.375,0,0,1,.024.53"
       fill="none"
       stroke-linecap="round"
       stroke-linejoin="round"
       stroke-width="1.5"
       id="path18"
       style="stroke:#ffffff;stroke-opacity:1" />
    <path
       d="M19.843,11.294a.376.376,0,0,1,.34-.407"
       fill="none"
       stroke-linecap="round"
       stroke-linejoin="round"
       stroke-width="1.5"
       id="path20"
       style="stroke:#ffffff;stroke-opacity:1" />
    <path
       d="M20.25,11.634a.375.375,0,0,1-.407-.34"
       fill="none"
       stroke-linecap="round"
       stroke-linejoin="round"
       stroke-width="1.5"
       id="path22"
       style="stroke:#ffffff;stroke-opacity:1" />
    <path
       d="M20.59,11.227a.374.374,0,0,1-.34.407"
       fill="none"
       stroke-linecap="round"
       stroke-linejoin="round"
       stroke-width="1.5"
       id="path24"
       style="stroke:#ffffff;stroke-opacity:1" />
    <path
       d="M20.183,10.887a.375.375,0,0,1,.407.34"
       fill="none"
       stroke-linecap="round"
       stroke-linejoin="round"
       stroke-width="1.5"
       id="path26"
       style="stroke:#ffffff;stroke-opacity:1" />
    <path
       d="M6.187,17.313a.375.375,0,0,0-.529-.024"
       fill="none"
       stroke-linecap="round"
       stroke-linejoin="round"
       stroke-width="1.5"
       id="path28"
       style="stroke:#ffffff;stroke-opacity:1" />
    <path
       d="M6.164,17.843a.376.376,0,0,0,.023-.53"
       fill="none"
       stroke-linecap="round"
       stroke-linejoin="round"
       stroke-width="1.5"
       id="path30"
       style="stroke:#ffffff;stroke-opacity:1" />
    <path
       d="M5.634,17.819a.375.375,0,0,0,.53.024"
       fill="none"
       stroke-linecap="round"
       stroke-linejoin="round"
       stroke-width="1.5"
       id="path32"
       style="stroke:#ffffff;stroke-opacity:1" />
    <path
       d="M5.658,17.289a.375.375,0,0,0-.024.53"
       fill="none"
       stroke-linecap="round"
       stroke-linejoin="round"
       stroke-width="1.5"
       id="path34"
       style="stroke:#ffffff;stroke-opacity:1" />
    <path
       d="M4.157,11.294a.376.376,0,0,0-.34-.407"
       fill="none"
       stroke-linecap="round"
       stroke-linejoin="round"
       stroke-width="1.5"
       id="path36"
       style="stroke:#ffffff;stroke-opacity:1" />
    <path
       d="M3.75,11.634a.375.375,0,0,0,.407-.34"
       fill="none"
       stroke-linecap="round"
       stroke-linejoin="round"
       stroke-width="1.5"
       id="path38"
       style="stroke:#ffffff;stroke-opacity:1" />
    <path
       d="M3.41,11.227a.374.374,0,0,0,.34.407"
       fill="none"
       stroke-linecap="round"
       stroke-linejoin="round"
       stroke-width="1.5"
       id="path40"
       style="stroke:#ffffff;stroke-opacity:1" />
    <path
       d="M3.817,10.887a.375.375,0,0,0-.407.34"
       fill="none"
       stroke-linecap="round"
       stroke-linejoin="round"
       stroke-width="1.5"
       id="path42"
       style="stroke:#ffffff;stroke-opacity:1" />
    <path
       d="M20.25 4.5L18 4.5"
       fill="none"
       stroke-linecap="round"
       stroke-linejoin="round"
       stroke-width="1.5"
       id="path44"
       style="stroke:#ffffff;stroke-opacity:1" />
    <path
       d="M6 4.5L3.75 4.5"
       fill="none"
       stroke-linecap="round"
       stroke-linejoin="round"
       stroke-width="1.5"
       id="path46"
       style="stroke:#ffffff;stroke-opacity:1" />
  </g>
</svg>
